<?xml version="1.0" encoding="UTF-8"?>
<svg id="Warstwa_1" data-name="Warstwa 1" xmlns="http://www.w3.org/2000/svg" viewBox="0 0 800 600">
  <path d="m75.35,233.72c-5.51-23.07-12.94-43.66-22.28-61.76-8.35-15.97-21.03-34.61-38.05-55.9-4.68-5.32-8.51-10.29-11.52-14.91-.34-.71-1-1.86-2-3.46-1-1.6-1.5-3.28-1.5-5.06,0-1.41,1.17-4.26,3.5-8.52C22.86,51.47,42.72,24.49,63.08,3.19,65.09,1.07,67.09,0,69.09,0,70.76,0,72.6,1.07,74.6,3.19c22.03,26.27,40.8,60.08,56.33,101.42,15.52,41.35,23.28,79.42,23.28,114.2,0,2.49.83,3.73,2.5,3.73,1,0,1.83-.71,2.5-2.13,23.03-54.65,49.57-99.73,79.61-135.23,30.04-35.49,66.59-53.24,109.65-53.24,25.36,0,48.39,6.92,69.09,20.76,20.69,13.84,38.05,31.94,52.07,54.3,14.02,22.36,24.7,46.5,32.04,72.4,7.34,25.21,13.02,57.06,17.02,95.56,4,38.51,6.01,73.2,6.01,104.08,0,7.1-.34,17.84-1,32.21-.67,14.37-2.34,27.42-5.01,39.13-2.67,14.91-9.1,34.07-19.28,57.5-10.19,23.43-18.61,40.46-25.29,51.11-4,6.39-7.59,10.74-10.76,13.04-3.18,2.31-7.43,3.46-12.77,3.46H181.24c-8.35,0-12.52-2.84-12.52-8.52,0-2.84.66-5.14,2-6.92,2.33-4.26,9.76-15.17,22.28-32.74,12.52-17.57,20.11-27.59,22.78-30.08.66-.71,1.83-2.21,3.5-4.53,1.67-2.3,3.92-4.08,6.76-5.32,2.83-1.24,6.26-1.86,10.26-1.86h213.29c5.34,0,9.51-.97,12.52-2.93,3-1.95,4.51-6.83,4.51-14.64,0-17.74-1.25-42.59-3.76-74.53-2.5-31.94-6.6-64.86-12.27-98.76-5.68-33.89-12.85-61.67-21.53-83.32-9.35-24.13-24.53-44.27-45.56-60.42-21.03-16.15-44.06-24.22-69.09-24.22-20.7,0-40.39,6.39-59.08,19.17-18.7,12.78-35.13,29.01-49.32,48.71-14.19,19.7-25.79,40.38-34.8,62.02-4.34,13.13-9.85,31.77-16.52,55.9-6.68,24.14-11.52,42.06-14.52,53.77-4.68,18.46-11.1,42.32-19.28,71.61-8.18,29.28-14.61,49.96-19.28,62.02-2.67,7.1-5.68,13.13-9.01,18.1-12.35,17.75-23.28,33.1-32.79,46.05-9.51,12.95-19.28,24.04-29.29,33.27-1.34,1.77-3.68,2.66-7.01,2.66-3.68,0-5.51-3.02-5.51-9.05,0-3.55,1.58-10.91,4.76-22.09,3.17-11.18,6.92-23.51,11.27-37,14.68-46.85,26.61-89.35,35.8-127.51,9.18-38.15,13.77-73.91,13.77-107.28,0-19.17-2.75-40.28-8.26-63.35Z"/>
  <path d="m401.46,497.25c5.67-7.8,11.34-11.71,17.02-11.71h235.32c7.67,0,11.52-6.21,11.52-18.63,0-23.77-1.09-72.49-3.25-146.14-2.18-73.64-3.76-114.9-4.76-123.78-1.34-15.97-7.43-29.55-18.27-40.73-10.85-11.18-22.95-16.77-36.3-16.77h-219.29c-14.69,0-22.03-6.74-22.03-20.23,0-3.9,2.92-11.45,8.76-22.63,5.84-11.18,12.43-22.44,19.78-33.81,7.34-11,14.27-20.85,20.78-29.55,6.51-8.69,13.93-17.84,22.28-27.42,2.33-2.48,4.17-4.08,5.51-4.79,1.33-.71,2.17-1.07,2.5-1.07,3,0,5.26.53,6.76,1.6s2.58,3.38,3.26,6.92c2.33,12.43,5.67,22.28,10.01,29.55,4.33,7.28,11.18,10.91,20.53,10.91h139.19c17.35,0,33.3,3.99,47.82,11.98s25.95,18.37,34.3,31.14c7.01,10.3,12.18,24.41,15.52,42.33,3.33,17.93,5.33,36.29,6.01,55.1.66,18.46,1.16,38.86,1.5,61.23.33,22.36.5,37.98.5,46.85.66,55.72,1.67,98.32,3,127.77.66,13.84,1.67,24.67,3,32.48,1.33,7.81,4.33,14.56,9.01,20.23,3,3.19,8.09,5.24,15.27,6.12,7.17.89,18.6,1.33,34.3,1.33,2,0,4,.89,6.01,2.66,2,1.78,3,4.08,3,6.92,0,1.42-.67,3.91-2,7.45-2.67,6.39-8.93,17.57-18.77,33.54-9.85,15.97-16.94,26.27-21.28,30.88-3.34,3.55-6.51,5.86-9.51,6.92s-7.85,1.6-14.52,1.6h-358.98c-9.01,0-13.52-2.84-13.52-8.52,0-.71.5-2.66,1.5-5.86,6.34-12.06,19.19-33.36,38.55-63.88Z"/>
</svg>